<svg width="25" height="24" viewBox="0 0 25 24" fill="none" xmlns="http://www.w3.org/2000/svg">
<path d="M10.6249 10.515C10.6249 9.20254 10.9849 7.98004 11.6074 6.92254C10.5799 5.72254 10.0699 4.46254 10.2199 3.46504C10.3099 2.88004 10.6174 2.44504 11.1424 2.16754C11.4799 1.98754 11.6299 1.58254 11.4874 1.23004C11.3449 0.877544 10.9624 0.682544 10.5949 0.780044C9.00495 1.20754 5.91495 3.06004 5.57745 6.98254C5.48745 8.02504 5.34495 8.85754 5.18745 9.51754C4.87245 8.69254 4.29495 7.92754 3.29745 7.47004C3.04245 7.35004 2.74245 7.38754 2.52495 7.56004C2.30745 7.73254 2.20245 8.01754 2.25495 8.29504C2.25495 8.31004 2.60745 10.155 1.90245 11.7675C1.47495 12.7575 1.25745 13.83 1.25745 14.955V15.105C1.25745 19.5975 4.90995 23.25 9.40245 23.25C13.0174 23.25 16.0924 20.88 17.1499 17.61C13.5049 17.3025 10.6324 14.2425 10.6324 10.515H10.6249ZM9.58995 19.8225C9.51495 20.175 9.20745 20.4225 8.85495 20.4225C8.80245 20.4225 8.74995 20.4225 8.69745 20.4075C6.39495 19.9275 4.56495 18.045 4.15245 15.7275C4.07745 15.3225 4.35495 14.9325 4.75995 14.8575C5.17245 14.7825 5.55495 15.06 5.62995 15.465C5.93745 17.1825 7.29495 18.5775 9.00495 18.9375C9.40995 19.02 9.67245 19.4175 9.58245 19.8225H9.58995Z" fill="#1BE181"/>
<path d="M17.75 4.51501C14.4425 4.51501 11.75 7.20751 11.75 10.515C11.75 13.8225 14.4425 16.515 17.75 16.515C21.0575 16.515 23.75 13.8225 23.75 10.515C23.75 7.20751 21.0575 4.51501 17.75 4.51501ZM20.5025 9.75751L17.5925 12.3825C17.45 12.51 17.27 12.5775 17.09 12.5775C16.91 12.5775 16.73 12.51 16.5875 12.3825L14.9975 10.95C14.69 10.6725 14.6675 10.2 14.945 9.89251C15.2225 9.58501 15.695 9.56251 16.0025 9.84001L17.09 10.8225L19.4975 8.64751C19.805 8.37001 20.2775 8.39251 20.555 8.70002C20.8325 9.00751 20.81 9.48001 20.5025 9.75751Z" fill="#1BE181"/>
</svg>
