<svg width="33" height="32" viewBox="0 0 33 32" fill="none" xmlns="http://www.w3.org/2000/svg">
<path d="M23.1666 28.3266L23.1693 20.3266C21.2785 21.8451 18.925 22.6709 16.5 22.6666C14.076 22.6706 11.7235 21.8454 9.83329 20.328L9.83729 28.328C9.83773 28.5108 9.88829 28.69 9.98348 28.8462C10.0787 29.0023 10.2148 29.1293 10.3772 29.2134C10.5395 29.2976 10.7218 29.3356 10.9043 29.3233C11.0867 29.3111 11.2623 29.249 11.412 29.144L16.5013 25.5613L21.592 29.144C21.7417 29.2495 21.9175 29.3118 22.1003 29.3242C22.2831 29.3366 22.4657 29.2986 22.6283 29.2142C22.791 29.1299 22.9273 29.0025 23.0224 28.846C23.1176 28.6895 23.1666 28.5098 23.1666 28.3266ZM25.8333 12C25.8333 10.7743 25.5919 9.56062 25.1228 8.42825C24.6538 7.29588 23.9663 6.26698 23.0996 5.4003C22.2329 4.53362 21.204 3.84613 20.0717 3.37708C18.9393 2.90804 17.7256 2.66663 16.5 2.66663C15.2743 2.66663 14.0606 2.90804 12.9282 3.37708C11.7959 3.84613 10.767 4.53362 9.9003 5.4003C9.03362 6.26698 8.34613 7.29588 7.87708 8.42825C7.40804 9.56062 7.16663 10.7743 7.16663 12C7.16663 14.4753 8.14996 16.8493 9.9003 18.5996C11.6506 20.35 14.0246 21.3333 16.5 21.3333C18.9753 21.3333 21.3493 20.35 23.0996 18.5996C24.85 16.8493 25.8333 14.4753 25.8333 12ZM16.8053 7.52263L18.0213 9.99329L20.7466 10.3866C21.0266 10.4266 21.1373 10.7706 20.936 10.9666L18.964 12.8866L19.4306 15.6013C19.4414 15.6638 19.4345 15.7282 19.4106 15.787C19.3867 15.8458 19.3468 15.8967 19.2955 15.934C19.2442 15.9714 19.1834 15.9936 19.1201 15.9982C19.0568 16.0027 18.9935 15.9895 18.9373 15.96L16.5 14.6773L14.064 15.96C14.0078 15.9895 13.9445 16.0027 13.8812 15.9982C13.8178 15.9936 13.7571 15.9714 13.7058 15.934C13.6544 15.8967 13.6145 15.8458 13.5907 15.787C13.5668 15.7282 13.5598 15.6638 13.5706 15.6013L14.0373 12.888L12.064 10.968C12.0181 10.9237 11.9856 10.8674 11.9702 10.8055C11.9548 10.7437 11.9571 10.6787 11.9769 10.6181C11.9966 10.5575 12.033 10.5036 12.0819 10.4627C12.1307 10.4218 12.1901 10.3954 12.2533 10.3866L14.9786 9.99329L16.1946 7.52263C16.2226 7.4655 16.2661 7.41737 16.32 7.38371C16.374 7.35004 16.4363 7.3322 16.5 7.3322C16.5636 7.3322 16.6259 7.35004 16.6799 7.38371C16.7339 7.41737 16.7773 7.4655 16.8053 7.52263Z" fill="#FFC512"/>
</svg>
