<svg width="33" height="32" viewBox="0 0 33 32" fill="none" xmlns="http://www.w3.org/2000/svg">
<path d="M23.1667 28.3266L23.1694 20.3266C21.2786 21.8451 18.9251 22.6709 16.5 22.6666C14.076 22.6706 11.7236 21.8454 9.83335 20.328L9.83735 28.328C9.83779 28.5108 9.88835 28.69 9.98354 28.8462C10.0787 29.0023 10.2149 29.1293 10.3773 29.2134C10.5396 29.2976 10.7219 29.3356 10.9043 29.3233C11.0868 29.3111 11.2624 29.249 11.412 29.144L16.5014 25.5613L21.592 29.144C21.7418 29.2495 21.9176 29.3118 22.1004 29.3242C22.2831 29.3366 22.4658 29.2986 22.6284 29.2142C22.791 29.1299 22.9273 29.0025 23.0225 28.846C23.1177 28.6895 23.1667 28.5098 23.1667 28.3266ZM25.8334 12C25.8334 10.7743 25.5919 9.56062 25.1229 8.42825C24.6539 7.29588 23.9664 6.26698 23.0997 5.4003C22.233 4.53362 21.2041 3.84613 20.0717 3.37708C18.9394 2.90804 17.7257 2.66663 16.5 2.66663C15.2744 2.66663 14.0607 2.90804 12.9283 3.37708C11.7959 3.84613 10.767 4.53362 9.90036 5.4003C9.03368 6.26698 8.34619 7.29588 7.87714 8.42825C7.4081 9.56062 7.16669 10.7743 7.16669 12C7.16669 14.4753 8.15002 16.8493 9.90036 18.5996C11.6507 20.35 14.0247 21.3333 16.5 21.3333C18.9754 21.3333 21.3493 20.35 23.0997 18.5996C24.85 16.8493 25.8334 14.4753 25.8334 12ZM16.8054 7.52263L18.0214 9.99329L20.7467 10.3866C21.0267 10.4266 21.1374 10.7706 20.936 10.9666L18.964 12.8866L19.4307 15.6013C19.4415 15.6638 19.4345 15.7282 19.4106 15.787C19.3868 15.8458 19.3469 15.8967 19.2956 15.934C19.2442 15.9714 19.1835 15.9936 19.1202 15.9982C19.0569 16.0027 18.9935 15.9895 18.9374 15.96L16.5 14.6773L14.064 15.96C14.0078 15.9895 13.9445 16.0027 13.8812 15.9982C13.8179 15.9936 13.7571 15.9714 13.7058 15.934C13.6545 15.8967 13.6146 15.8458 13.5907 15.787C13.5668 15.7282 13.5599 15.6638 13.5707 15.6013L14.0374 12.888L12.064 10.968C12.0182 10.9237 11.9857 10.8674 11.9703 10.8055C11.9549 10.7437 11.9572 10.6787 11.9769 10.6181C11.9967 10.5575 12.033 10.5036 12.0819 10.4627C12.1308 10.4218 12.1902 10.3954 12.2534 10.3866L14.9787 9.99329L16.1947 7.52263C16.2227 7.4655 16.2661 7.41737 16.3201 7.38371C16.3741 7.35004 16.4364 7.3322 16.5 7.3322C16.5636 7.3322 16.626 7.35004 16.6799 7.38371C16.7339 7.41737 16.7774 7.4655 16.8054 7.52263Z" fill="#FAEEC9"/>
</svg>
