<svg width="40" height="40" viewBox="0 0 40 40" fill="none" xmlns="http://www.w3.org/2000/svg">
<path d="M29.2049 25.6445C28.8752 25.6445 28.553 25.5394 28.2789 25.3426C28.0048 25.1457 27.7912 24.8659 27.6651 24.5385C27.5389 24.2111 27.5059 23.8508 27.5702 23.5033C27.6345 23.1557 27.7933 22.8365 28.0264 22.5859C28.2594 22.3354 28.5564 22.1647 28.8797 22.0956C29.203 22.0265 29.5381 22.0619 29.8427 22.1976C30.1472 22.3332 30.4075 22.5628 30.5906 22.8574C30.7738 23.1521 30.8715 23.4985 30.8715 23.8528C30.8715 24.328 30.6959 24.7837 30.3834 25.1197C30.0708 25.4557 29.6469 25.6445 29.2049 25.6445ZM10.7951 25.6445C10.4655 25.6445 10.1433 25.5394 9.86919 25.3426C9.59511 25.1457 9.38149 24.8659 9.25534 24.5385C9.12919 24.2111 9.09619 23.8508 9.1605 23.5033C9.22481 23.1557 9.38354 22.8365 9.61663 22.5859C9.84972 22.3354 10.1467 22.1647 10.47 22.0956C10.7933 22.0265 11.1284 22.0619 11.4329 22.1976C11.7375 22.3332 11.9978 22.5628 12.1809 22.8574C12.3641 23.1521 12.4618 23.4985 12.4618 23.8528C12.4618 24.328 12.2862 24.7837 11.9737 25.1197C11.6611 25.4557 11.2372 25.6445 10.7951 25.6445ZM29.8021 14.8587L33.1313 8.66249C33.1842 8.57763 33.2204 8.48198 33.2376 8.38148C33.2548 8.28097 33.2526 8.17774 33.2312 8.07818C33.2097 7.97862 33.1695 7.88485 33.113 7.80268C33.0565 7.72052 32.9848 7.6517 32.9026 7.60049C32.8203 7.54928 32.7291 7.51678 32.6347 7.50499C32.5403 7.4932 32.4446 7.50237 32.3536 7.53195C32.2626 7.56152 32.1783 7.61086 32.1057 7.67692C32.0332 7.74297 31.974 7.82433 31.9319 7.91596L28.5611 14.192C25.8686 12.8938 22.951 12.2227 20 12.2227C17.049 12.2227 14.1314 12.8938 11.4389 14.192L8.06806 7.91596C8.02596 7.82433 7.96682 7.74297 7.89428 7.67692C7.82175 7.61086 7.73737 7.56152 7.64638 7.53195C7.55539 7.50237 7.45971 7.4932 7.36528 7.50499C7.27086 7.51678 7.17969 7.54928 7.09742 7.60049C7.01516 7.6517 6.94355 7.72052 6.88703 7.80268C6.83051 7.88485 6.79029 7.97862 6.76885 8.07818C6.74741 8.17774 6.74522 8.28097 6.7624 8.38148C6.77959 8.48198 6.81578 8.57763 6.86875 8.66249L10.1979 14.8587C4.48125 18.2009 0.572222 24.4217 0 31.7713H40C39.4278 24.4217 35.5181 18.2009 29.8021 14.8587Z" fill="white"/>
</svg>
