<svg width="40" height="40" viewBox="0 0 40 40" fill="none" xmlns="http://www.w3.org/2000/svg">
<path d="M30.5969 21.1378C30.5801 17.8604 31.9699 15.3867 34.7829 13.565C33.2089 11.1627 30.8313 9.84108 27.6918 9.5821C24.7197 9.33206 21.4713 11.4307 20.2825 11.4307C19.0267 11.4307 16.1467 9.6714 13.8862 9.6714C9.21463 9.75177 4.25 13.6453 4.25 21.5664C4.25 23.9061 4.65186 26.3232 5.45558 28.8177C6.5272 32.0951 10.3951 40.1323 14.4304 39.9983C16.5402 39.9448 18.0304 38.3998 20.7764 38.3998C23.4388 38.3998 24.8201 39.9983 27.1727 39.9983C31.2415 39.9358 34.741 32.6309 35.7624 29.3446C30.3038 26.6031 30.5969 21.3074 30.5969 21.1378ZM25.8583 6.47439C28.1439 3.58101 27.9346 0.946601 27.8676 0C25.8499 0.125023 23.5141 1.46455 22.1829 3.11664C20.7178 4.88482 19.8555 7.07272 20.0397 9.53745C22.2248 9.71605 24.2174 8.51941 25.8583 6.47439Z" fill="white"/>
</svg>
