<svg width="306" height="95" viewBox="0 0 306 95" fill="none" xmlns="http://www.w3.org/2000/svg">
<g clip-path="url(#clip0_9167_1928)">
<path d="M66.084 3.80515C63.8064 1.26525 60.7419 0 56.8805 0H32.7843C28.9604 0 25.4177 1.26525 22.1561 3.80515C18.857 6.38252 16.8514 9.48476 16.1297 13.1212L12.3808 32.4375H31.4722L34.312 17.7793H48.4639L45.5117 32.953C45.0619 35.3429 44.1624 36.9831 42.8406 37.9015C41.6692 38.7357 39.8135 39.1481 37.2736 39.1481C29.4665 39.1481 22.7653 41.2849 17.1607 45.568C11.4436 49.9263 7.86336 55.7932 6.42002 63.1881L0 96.1502H52.3349L58.3049 65.6059H39.2605L36.7675 78.3615H22.5497L25.502 63.1881C25.9613 60.7982 26.8422 59.1577 28.1731 58.2394C29.3446 57.4054 31.2191 56.9927 33.7965 56.9927C41.6036 56.9927 48.305 54.8562 53.9095 50.573C59.5891 46.2147 63.1505 40.3477 64.5937 32.953L68.4551 13.1212C69.1864 9.48476 68.3992 6.38252 66.084 3.80515Z" fill="#F04C4D"/>
<path d="M134.803 3.80515C132.526 1.26526 129.461 0 125.6 0H101.503C97.6797 0 94.137 1.26526 90.8752 3.80515C87.5762 6.38251 85.5707 9.48475 84.8489 13.1212L81.1001 32.4375H100.191L103.031 17.7792H117.183L114.231 32.953C113.772 35.3429 112.882 36.9831 111.56 37.9015C110.389 38.7357 108.533 39.148 105.993 39.148C98.1857 39.148 91.4848 41.2849 85.8798 45.5679C80.1631 49.9262 76.5825 55.7931 75.1393 63.1879L68.7191 96.1504H121.054L124.128 80.3578L127.015 65.6061H107.97L105.478 78.3618H91.2782L94.2305 63.1879C94.6899 60.7981 95.571 59.158 96.902 58.2393C98.0735 57.4053 99.9477 56.993 102.525 56.993C110.332 56.993 117.033 54.856 122.638 50.5728C128.318 46.2146 131.879 40.3477 133.322 32.953L137.184 13.1212C137.915 9.48475 137.118 6.38251 134.803 3.80515Z" fill="#0A8F9B"/>
<path d="M205.208 3.852C202.902 1.31211 199.809 0.0374685 195.948 0.0374685L156.228 0L152.751 17.8074H158.075H165.319H174.532L187.588 17.8167L184.617 32.9905C184.27 34.6962 183.286 36.1677 181.655 37.4235C180.343 38.3889 178.928 38.9512 177.438 39.1199H166.36L169.443 23.4214H151.636L142.048 72.7383H159.855L162.892 56.9836H165.319V57.0116L175.441 57.0212C177.26 57.0212 178.74 57.6115 179.875 58.7831C181.009 60.0014 181.402 61.4729 181.065 63.2161L179.294 72.1383C178.497 76.3093 175.085 78.3804 169.059 78.3804H165.319H140.914L137.446 96.1314L165.572 96.1598C173.455 96.169 180.446 94.0695 186.548 89.871C193.033 85.4097 196.979 79.5052 198.385 72.1571L200.156 63.2348C201.487 56.3369 199.678 50.9944 194.72 47.2081C199.575 43.5437 202.574 38.8106 203.718 33.0092L207.598 13.1774C208.301 9.54097 207.513 6.42938 205.208 3.852Z" fill="white"/>
<path d="M245.657 0H226.882L207.846 96.1877H226.878L245.657 0Z" fill="white"/>
<path d="M264.299 17.798L245.657 17.7792L249.143 0L305.405 0.0562313L301.919 17.8354L283.333 17.8167L268.019 96.1598L248.984 96.141L264.299 17.798Z" fill="white"/>
</g>
<defs>
<clipPath id="clip0_9167_1928">
<rect width="306" height="94.9655" fill="white"/>
</clipPath>
</defs>
</svg>
