<svg width="18" height="18" viewBox="0 0 18 18" fill="none" xmlns="http://www.w3.org/2000/svg">
<path d="M8.99619 7.26636L15.7302 14.0001C15.9152 14.1855 16.1625 14.2875 16.4262 14.2875C16.6901 14.2875 16.9373 14.1855 17.1225 14.0001L17.7123 13.4101C17.8979 13.2249 18 12.9775 18 12.7138C18 12.4501 17.8979 12.2029 17.7123 12.0176L9.69483 4.00002C9.50898 3.81402 9.26063 3.71216 8.99663 3.71289C8.73146 3.71216 8.48341 3.81387 8.29741 4.00002L0.287708 12.0102C0.102148 12.1954 0 12.4426 0 12.7065C0 12.9702 0.102148 13.2173 0.287708 13.4027L0.877464 13.9927C1.26132 14.3765 1.8862 14.3765 2.2699 13.9927L8.99619 7.26636Z" fill="white"/>
</svg>
